# xmcd
#
# Track frame offsets:
#   150
#   19073
#   48637
#   66066
#   81486
#   119048
#
# Disc length: 1762 seconds
#
# Revision: 1
# Processed by: cddbd v1.5.2PL0 Copyright (c) Steve Scherf et al.
# Submitted via: Media_Universe 3.0
#
DISCID=5306e006
DTITLE=Johnny Cash - Johnny Cash - The Johnny Cash Show (Live)
DYEAR=1970
DGENRE=Country
TTITLE0=Sunday Morning Coming Down (live)
TTITLE1=Come along and Ride This train (live)
TTITLE2=These Hands (live)
TTITLE3=I'm Gonna try To Be That Way (live)
TTITLE4=Comme along and ride this train ... (live)
TTITLE5=Here was a man (live)
EXTD=
EXTT0=
EXTT1=
EXTT2=
EXTT3=
EXTT4=
EXTT5=
PLAYORDER=
